<?xml version="1.0" encoding="utf-8"?>
<svg id="master-artboard" viewBox="0 0 417.822998046875 128.37310791015625" xmlns="http://www.w3.org/2000/svg" width="417.822998046875px" height="128.37310791015625px" version="1.1" style="shape-rendering:geometricPrecision; text-rendering:geometricPrecision; image-rendering:optimizeQuality; fill-rule:evenodd; clip-rule:evenodd"><rect id="ee-background" x="0" y="0" width="417.822998046875" height="128.37310791015625" style="fill: white; fill-opacity: 0; pointer-events: none;"/><path d="M 1194.6207275390625 468 L 1160.7108154296875 379.4100036621094 L 1160.1707763671875 379.4100036621094 C 1160.8040771484375 386.42333984375 1161.1207275390625 394.7633361816406 1161.1207275390625 404.42999267578125 L 1161.1207275390625 468 L 1150.3907470703125 468 L 1150.3907470703125 368.05999755859375 L 1167.8907470703125 368.05999755859375 L 1199.540771484375 450.5 L 1200.0906982421875 450.5 L 1232.0107421875 368.05999755859375 L 1249.3707275390625 368.05999755859375 L 1249.3707275390625 468 L 1237.750732421875 468 L 1237.750732421875 403.6099853515625 C 1237.750732421875 396.22332763671875 1238.07080078125 388.20001220703125 1238.710693359375 379.5400085449219 L 1238.1607666015625 379.5400085449219 L 1203.980712890625 468 L 1194.6207275390625 468 ZM 1414.1187744140625 469.3699951171875 C 1403.2720947265625 469.3699951171875 1394.87548828125 466.0299987792969 1388.9288330078125 459.3500061035156 C 1382.982177734375 452.6766662597656 1380.0087890625 443.23333740234375 1380.0087890625 431.0199890136719 C 1380.0087890625 418.4866638183594 1383.02880859375 408.79998779296875 1389.06884765625 401.9599914550781 C 1395.1087646484375 395.12664794921875 1403.7088623046875 391.7099914550781 1414.8687744140625 391.7099914550781 C 1418.4754638671875 391.7099914550781 1422.078857421875 392.0966796875 1425.6788330078125 392.8699951171875 C 1429.27880859375 393.6499938964844 1432.1021728515625 394.5633239746094 1434.1488037109375 395.6099853515625 L 1430.6688232421875 405.25 C 1428.162109375 404.24334716796875 1425.4254150390625 403.4100036621094 1422.4588623046875 402.75 C 1419.498779296875 402.0899963378906 1416.8787841796875 401.760009765625 1414.5987548828125 401.760009765625 C 1399.3787841796875 401.760009765625 1391.768798828125 411.4666748046875 1391.768798828125 430.8800048828125 C 1391.768798828125 440.086669921875 1393.62548828125 447.1499938964844 1397.3387451171875 452.07000732421875 C 1401.0521240234375 456.9966735839844 1406.555419921875 459.4599914550781 1413.8487548828125 459.4599914550781 C 1420.0887451171875 459.4599914550781 1426.4921875 458.11334228515625 1433.058837890625 455.4200134277344 L 1433.058837890625 465.4700012207031 C 1428.04541015625 468.07000732421875 1421.732177734375 469.3699951171875 1414.1187744140625 469.3699951171875 ZM 1502.0992431640625 468 L 1502.0992431640625 419.5299987792969 C 1502.0992431640625 413.42333984375 1500.709228515625 408.8666687011719 1497.92919921875 405.8599853515625 C 1495.149169921875 402.85333251953125 1490.7958984375 401.3500061035156 1484.869140625 401.3500061035156 C 1476.9891357421875 401.3500061035156 1471.23583984375 403.49334716796875 1467.6092529296875 407.7799987792969 C 1463.9891357421875 412.05999755859375 1462.17919921875 419.07666015625 1462.17919921875 428.83001708984375 L 1462.17919921875 468 L 1450.8292236328125 468 L 1450.8292236328125 361.6300048828125 L 1462.17919921875 361.6300048828125 L 1462.17919921875 393.83001708984375 C 1462.17919921875 397.7033386230469 1461.995849609375 400.9166564941406 1461.629150390625 403.4700012207031 L 1462.3192138671875 403.4700012207031 C 1464.552490234375 399.8699951171875 1467.729248046875 397.0333251953125 1471.8492431640625 394.9599914550781 C 1475.975830078125 392.88665771484375 1480.6824951171875 391.8500061035156 1485.96923828125 391.8500061035156 C 1495.129150390625 391.8500061035156 1501.9991455078125 394.02667236328125 1506.5792236328125 398.3800048828125 C 1511.1591796875 402.7266845703125 1513.44921875 409.6400146484375 1513.44921875 419.1199951171875 L 1513.44921875 468 L 1502.0992431640625 468 ZM 1548.10693359375 468 L 1536.7569580078125 468 L 1536.7569580078125 393.08001708984375 L 1548.10693359375 393.08001708984375 L 1548.10693359375 468 M 1535.796875 372.7799987792969 C 1535.796875 370.17999267578125 1536.4368896484375 368.27667236328125 1537.7169189453125 367.07000732421875 C 1538.990234375 365.86334228515625 1540.5836181640625 365.260009765625 1542.4969482421875 365.260009765625 C 1544.3236083984375 365.260009765625 1545.89697265625 365.87335205078125 1547.2169189453125 367.1000061035156 C 1548.5369873046875 368.3333435058594 1549.1968994140625 370.2266845703125 1549.1968994140625 372.7799987792969 C 1549.1968994140625 375.32666015625 1548.5369873046875 377.2266845703125 1547.2169189453125 378.4800109863281 C 1545.89697265625 379.73333740234375 1544.3236083984375 380.3599853515625 1542.4969482421875 380.3599853515625 C 1540.5836181640625 380.3599853515625 1538.990234375 379.73333740234375 1537.7169189453125 378.4800109863281 C 1536.4368896484375 377.2266845703125 1535.796875 375.32666015625 1535.796875 372.7799987792969 Z" transform="matrix(1, 0, 0, 1, -1138.3492431640625, -352.607666015625)" style="fill: rgb(170, 61, 200); white-space: pre; color: rgb(170, 61, 200);"/><g transform="matrix(0.3940096199512482, 0, 0, 0.3940096199512482, 24.178955078125, -65.96502685546875)"><g>
  <title>background</title>
  <path d="M -1 -1 H 801 V 601 H -1 V -1 Z" fill="none" id="canvas_background"/>
 </g><g>
  <title>Layer 1</title>
  <path id="svg_2" fill="#E1E4FB" d="m391.765,466.411c-32.881,0 -61.468,-7.393 -82.668,-21.382c-24.576,-16.215 -37.566,-40.004 -37.566,-68.794c0,-28.458 12.734,-58.207 34.937,-81.62c23.615,-24.901 53.907,-38.615 85.297,-38.615s61.683,13.714 85.298,38.614c22.203,23.414 34.937,53.163 34.937,81.621c0,28.79 -12.99,52.58 -37.566,68.794c-21.201,13.989 -49.788,21.382 -82.669,21.382z"/>
  <path id="svg_3" fill="#AA3DC8" d="m391.765,406.294c-27.733,0 -60.117,-7.872 -60.117,-30.059c0,-12.348 6.512,-26.924 17.42,-38.99c12.315,-13.625 27.479,-21.127 42.697,-21.127s30.382,7.503 42.697,21.127c10.908,12.067 17.42,26.642 17.42,38.99c0.001,22.186 -32.384,30.059 -60.117,30.059z"/>
  <path id="svg_7" fill="#C5C9F7" d="m474.434,445.029c24.576,-16.214 37.566,-40.004 37.566,-68.794c0,-28.458 -12.734,-58.207 -34.937,-81.62c-23.614,-24.901 -53.908,-38.615 -85.298,-38.615l0,210.411c32.881,0 61.468,-7.393 82.669,-21.382z"/>
  <path id="svg_8" fill="#9332B0" d="m451.883,376.235c0,-12.348 -6.512,-26.924 -17.42,-38.99c-12.315,-13.625 -27.479,-21.127 -42.697,-21.127l0,90.176c27.732,0 60.117,-7.873 60.117,-30.059z"/>
  <g id="svg_10"/>
  <g id="svg_11"/>
  <g id="svg_12"/>
  <g id="svg_13"/>
  <g id="svg_14"/>
  <g id="svg_15"/>
  <g id="svg_16"/>
  <g id="svg_17"/>
  <g id="svg_18"/>
  <g id="svg_19"/>
  <g id="svg_20"/>
  <g id="svg_21"/>
  <g id="svg_22"/>
  <g id="svg_23"/>
  <g id="svg_24"/>
 </g></g></svg>